# xmcd
#
# Track frame offsets:
#	183
#	19433
#	40010
#	65368
#
# Disc length: 1184 seconds
#
# Revision: 1
# Processed by: cddbd v1.5.2PL0 Copyright (c) Steve Scherf et al.
# Submitted via: audiograbber 1.83.01
#
DISCID=2d049e04
DTITLE=Richard Marx - Endless Summer Nights
DYEAR=1987
DGENRE=Hard Rock
TTITLE0=Endless Summer Nights (Edited Version)
TTITLE1=Should've Known Better (Extended Mix)
TTITLE2=Have Mercy (Live)
TTITLE3=Rhytm Of Life (Live)
EXTD=
EXTT0=
EXTT1=
EXTT2=
EXTT3=
PLAYORDER=
